<svg width="70" height="70" viewBox="0 0 70 70" fill="none" xmlns="http://www.w3.org/2000/svg">
<g filter="url(#filter0_d_1_445)">
<circle cx="35.0003" cy="22.0246" r="16.7999" fill="#6A4029"/>
</g>
<path d="M40.2502 22.0246C40.2502 23.417 39.6971 24.7524 38.7125 25.7369C37.7279 26.7215 36.3926 27.2746 35.0002 27.2746C33.6078 27.2746 32.2725 26.7215 31.2879 25.7369C30.3033 24.7524 29.7502 23.417 29.7502 22.0246C29.7502 21.7254 29.7817 21.4331 29.8359 21.1496H28.0002V28.1444C28.0002 28.6309 28.3939 29.0246 28.8804 29.0246H41.1217C41.3549 29.0241 41.5783 28.9312 41.743 28.7662C41.9077 28.6011 42.0002 28.3775 42.0002 28.1444V21.1496H40.1644C40.2187 21.4331 40.2502 21.7254 40.2502 22.0246ZM35.0002 25.5246C35.4599 25.5245 35.9152 25.4338 36.3399 25.2578C36.7646 25.0817 37.1504 24.8238 37.4754 24.4986C37.8004 24.1734 38.0582 23.7874 38.234 23.3627C38.4099 22.9379 38.5003 22.4826 38.5002 22.0229C38.5001 21.5631 38.4094 21.1079 38.2334 20.6832C38.0573 20.2585 37.7994 19.8726 37.4742 19.5476C37.149 19.2226 36.763 18.9648 36.3382 18.789C35.9135 18.6132 35.4582 18.5227 34.9984 18.5229C34.07 18.5231 33.1796 18.8922 32.5232 19.5489C31.8668 20.2056 31.4982 21.0961 31.4984 22.0246C31.4987 22.9531 31.8677 23.8435 32.5244 24.4998C33.1812 25.1562 34.0717 25.5248 35.0002 25.5246ZM39.2002 18.3496H41.2984C41.4378 18.3496 41.5716 18.2944 41.6703 18.1959C41.769 18.0975 41.8247 17.964 41.8252 17.8246V15.7264C41.8252 15.5867 41.7697 15.4527 41.6709 15.3539C41.5721 15.2551 41.4382 15.1996 41.2984 15.1996H39.2002C39.0605 15.1996 38.9265 15.2551 38.8277 15.3539C38.7289 15.4527 38.6734 15.5867 38.6734 15.7264V17.8246C38.6752 18.1134 38.9114 18.3496 39.2002 18.3496ZM35.0002 5.22461C30.5446 5.22461 26.2714 6.9946 23.1208 10.1452C19.9702 13.2958 18.2002 17.569 18.2002 22.0246C18.2002 26.4802 19.9702 30.7534 23.1208 33.904C26.2714 37.0546 30.5446 38.8246 35.0002 38.8246C37.2064 38.8246 39.391 38.3901 41.4293 37.5458C43.4676 36.7015 45.3196 35.464 46.8796 33.904C48.4396 32.344 49.6771 30.492 50.5214 28.4537C51.3657 26.4154 51.8002 24.2308 51.8002 22.0246C51.8002 19.8184 51.3657 17.6338 50.5214 15.5955C49.6771 13.5573 48.4396 11.7052 46.8796 10.1452C45.3196 8.58519 43.4676 7.34771 41.4293 6.50343C39.391 5.65915 37.2064 5.22461 35.0002 5.22461ZM43.7502 28.8304C43.7502 29.8996 42.8752 30.7746 41.8059 30.7746H28.1944C27.1252 30.7746 26.2502 29.8996 26.2502 28.8304V15.2189C26.2502 14.1496 27.1252 13.2746 28.1944 13.2746H41.8059C42.8752 13.2746 43.7502 14.1496 43.7502 15.2189V28.8304Z" fill="#FFBA33"/>
<defs>
<filter id="filter0_d_1_445" x="0.200317" y="0.224609" width="69.5999" height="69.5999" filterUnits="userSpaceOnUse" color-interpolation-filters="sRGB">
<feFlood flood-opacity="0" result="BackgroundImageFix"/>
<feColorMatrix in="SourceAlpha" type="matrix" values="0 0 0 0 0 0 0 0 0 0 0 0 0 0 0 0 0 0 127 0" result="hardAlpha"/>
<feOffset dy="13"/>
<feGaussianBlur stdDeviation="9"/>
<feColorMatrix type="matrix" values="0 0 0 0 0.0658854 0 0 0 0 0.0730469 0 0 0 0 0.1375 0 0 0 0.08 0"/>
<feBlend mode="normal" in2="BackgroundImageFix" result="effect1_dropShadow_1_445"/>
<feBlend mode="normal" in="SourceGraphic" in2="effect1_dropShadow_1_445" result="shape"/>
</filter>
</defs>
</svg>
