<svg width="71" height="70" viewBox="0 0 71 70" fill="none" xmlns="http://www.w3.org/2000/svg">
<g filter="url(#filter0_d_1_442)">
<circle cx="35.4002" cy="22.0246" r="16.7999" fill="#6A4029"/>
</g>
<path d="M35.4001 5.22461C26.1216 5.22461 18.6001 12.7461 18.6001 22.0246C18.6001 31.3031 26.1216 38.8246 35.4001 38.8246C44.6786 38.8246 52.2001 31.3031 52.2001 22.0246C52.2001 12.7461 44.6786 5.22461 35.4001 5.22461ZM42.2339 18.9866C42.2409 19.1301 42.2426 19.2736 42.2426 19.4136C42.2426 23.7886 38.9159 28.8304 32.8294 28.8304C31.0309 28.8334 29.2698 28.3168 27.7578 27.3429C28.0151 27.3744 28.2793 27.3866 28.5471 27.3866C30.0976 27.3866 31.5239 26.8599 32.6561 25.9709C31.9661 25.9573 31.2975 25.7288 30.7435 25.3173C30.1896 24.9057 29.7778 24.3316 29.5656 23.6749C30.0611 23.7691 30.5716 23.7493 31.0583 23.6171C30.3094 23.4657 29.6359 23.0599 29.1521 22.4685C28.6682 21.8772 28.4038 21.1367 28.4036 20.3726V20.3324C28.8498 20.5791 29.3608 20.7296 29.9033 20.7471C29.2012 20.2797 28.7042 19.5618 28.5139 18.7401C28.3236 17.9184 28.4544 17.0551 28.8796 16.3266C29.7108 17.3486 30.7473 18.1847 31.9221 18.7807C33.0969 19.3766 34.3837 19.7193 35.6994 19.7864C35.5321 19.0764 35.6041 18.3311 35.9041 17.6662C36.2042 17.0014 36.7154 16.4543 37.3585 16.1101C38.0015 15.7658 38.7403 15.6436 39.4599 15.7625C40.1796 15.8814 40.8397 16.2348 41.3379 16.7676C42.0784 16.6211 42.7886 16.3495 43.4379 15.9644C43.191 16.7311 42.6743 17.3822 41.9836 17.7966C42.6396 17.7176 43.2801 17.5412 43.8841 17.2734C43.4405 17.9382 42.8816 18.5184 42.2339 18.9866Z" fill="#FFBA33"/>
<defs>
<filter id="filter0_d_1_442" x="0.60022" y="0.224609" width="69.5999" height="69.5999" filterUnits="userSpaceOnUse" color-interpolation-filters="sRGB">
<feFlood flood-opacity="0" result="BackgroundImageFix"/>
<feColorMatrix in="SourceAlpha" type="matrix" values="0 0 0 0 0 0 0 0 0 0 0 0 0 0 0 0 0 0 127 0" result="hardAlpha"/>
<feOffset dy="13"/>
<feGaussianBlur stdDeviation="9"/>
<feColorMatrix type="matrix" values="0 0 0 0 0.0658854 0 0 0 0 0.0730469 0 0 0 0 0.1375 0 0 0 0.08 0"/>
<feBlend mode="normal" in2="BackgroundImageFix" result="effect1_dropShadow_1_442"/>
<feBlend mode="normal" in="SourceGraphic" in2="effect1_dropShadow_1_442" result="shape"/>
</filter>
</defs>
</svg>
